<svg height="512pt" viewBox="-16 0 512 512" width="512pt" xmlns="http://www.w3.org/2000/svg"><path d="m30.023438 363.328125c.515624 40.832031 24.738281 78.699219 68.371093 106.75 42.054688 27.035156 97.671875 41.921875 156.605469 41.921875s114.550781-14.886719 156.605469-41.921875c44.105469-28.355469 68.394531-66.738281 68.394531-108.078125 0-36.515625-19.445312-76.609375-68.394531-108.078125-31.203125-20.058594-69.871094-33.417969-111.820313-38.984375-1.882812-54.550781-16.503906-105.820312-41.660156-145.464844-28.425781-44.800781-66.824219-69.472656-108.125-69.472656-.21875 0-.4375.0117188-.65625.0117188-.503906-.01562505-1.007812-.00781255-1.519531.0273437-40.46875.8515625-78.023438 25.4218755-105.949219 69.4335935-27.003906 42.554688-41.875 98.5-41.875 157.527344 0 49.011719 10.621094 96.824219 30.007812 135.605469-.003906.242187.011719.484375.015626.722656zm365.359374 81.515625c-37.277343 23.960938-87.128906 37.15625-140.382812 37.15625s-103.105469-13.195312-140.382812-37.15625c-31.011719-19.9375-49.746094-45.128906-53.785157-71.875 58.226563-20.570312 123.28125-18.601562 180.179688 5.785156 65.46875 28.058594 139.03125 29.839844 205.648437 5.171875-6.933594 22.632813-24.542968 43.726563-51.277344 60.917969zm53.761719-93.972656-9.9375 3.824218c-60.554687 23.289063-126.742187 22.042969-186.375-3.515624-33.917969-14.535157-69.824219-22.082032-106.71875-22.429688-28.300781-.261719-56.097656 3.734375-82.9375 11.871094 6.816407-22.835938 24.492188-44.136719 51.445313-61.460938 40.425781-25.992187 91.96875-37.160156 140.378906-37.160156 53.253906 0 103.105469 13.195312 140.382812 37.15625 30.949219 19.898438 49.675782 45.03125 53.761719 71.714844zm-216.351562-265.328125c21.78125 34.328125 34.675781 78.894531 36.871093 126.773437-4.863281-.203125-9.75-.316406-14.664062-.316406-28.089844 0-55.417969 3.390625-80.890625 9.855469 20.773437-60.683594 20.128906-128.101563-2.15625-188.433594 22.542969 7.074219 43.613281 24.96875 60.839844 52.121094zm-165.585938 0c19.964844-31.460938 45.078125-50.503907 71.671875-54.667969l3.816406 9.917969c23.210938 60.34375 21.929688 129.007812-3.515624 188.375-.675782 1.574219-1.332032 3.164062-1.976563 4.753906-13.871094 5.648437-26.886719 12.335937-38.808594 20-25.746093 16.554687-44.730469 36.527344-56.082031 58.511719-8.039062-26.449219-12.3125-55.636719-12.3125-85.433594 0-53.40625 13.214844-103.644531 37.207031-141.457031zm0 0"/></svg>