<?xml version="1.0" encoding="UTF-8"?>
<svg width="550px" height="100px" viewBox="0 0 550 100" version="1.1" xmlns="http://www.w3.org/2000/svg" xmlns:xlink="http://www.w3.org/1999/xlink">
    <!-- Generator: Sketch 48.2 (47327) - http://www.bohemiancoding.com/sketch -->
    <title>Logo-Flaticon-01</title>
    <desc>Created with Sketch.</desc>
    <defs></defs>
    <g id="Page-1" stroke="none" stroke-width="1" fill="none" fill-rule="evenodd">
        <g id="Logo-Flaticon-01" fill-rule="nonzero">
            <g id="Group" transform="translate(138.324728, 21.818182)">
                <g fill="#0E2A47" id="Shape">
                    <path d="M0.553298912,7.54545455 C0.553298912,3.90909091 3.50422644,1 7.19288585,1 L40.851903,1 C44.1716965,1 46.8459745,3.63636364 46.8459745,6.90909091 C46.8459745,10.1818182 44.1716965,12.8181818 40.851903,12.8181818 L13.8324728,12.8181818 L13.8324728,25.4545455 L37.0710271,25.4545455 C40.3908206,25.4545455 43.0650986,28.0909091 43.0650986,31.3636364 C43.0650986,34.6363636 40.3908206,37.2727273 37.0710271,37.2727273 L13.8324728,37.2727273 L13.8324728,54.2727273 C13.8324728,57.9090909 10.8815453,60.8181818 7.19288585,60.8181818 C3.50422644,60.8181818 0.553298912,57.9090909 0.553298912,54.2727273 L0.553298912,7.54545455 Z"></path>
                    <path d="M51.7334482,7.09090909 C51.7334482,3.45454545 54.6843758,0.545454545 58.3730352,0.545454545 C62.0616946,0.545454545 65.0126221,3.45454545 65.0126221,7.09090909 L65.0126221,48.5454545 L89.4499907,48.5454545 C92.7697842,48.5454545 95.4440623,51.1818182 95.4440623,54.4545455 C95.4440623,57.7272727 92.7697842,60.3636364 89.4499907,60.3636364 L58.2808187,60.3636364 C54.5921593,60.3636364 51.6412318,57.4545455 51.6412318,53.8181818 L51.6412318,7.09090909 L51.7334482,7.09090909 Z"></path>
                    <path d="M98.7638557,52 L119.789214,5.27272727 C121.264678,2.09090909 123.938956,0.0909090909 127.535399,0.0909090909 L128.273131,0.0909090909 C131.869574,0.0909090909 134.451636,2 135.927099,5.27272727 L156.952458,52 C157.41354,52.9090909 157.597973,53.8181818 157.597973,54.6363636 C157.597973,58.0909091 154.831479,60.9090909 151.327252,60.9090909 C148.191892,60.9090909 146.163129,59.0909091 144.964315,56.4545455 L140.90679,47.0909091 L114.440658,47.0909091 L110.1987,56.8181818 C109.092102,59.3636364 106.878906,60.9090909 104.112412,60.9090909 C100.700402,60.9090909 98.0261239,58.1818182 98.0261239,54.8181818 C98.0261239,53.9090909 98.3027733,52.9090909 98.7638557,52 Z M136.019316,35.5454545 L127.719832,16 L119.420348,35.5454545 L136.019316,35.5454545 Z"></path>
                    <path d="M170.139415,13.0909091 L157.41354,13.0909091 C154.093747,13.0909091 151.327252,10.3636364 151.327252,7.09090909 C151.327252,3.81818182 154.093747,1.09090909 157.41354,1.09090909 L196.144464,1.09090909 C199.464258,1.09090909 202.230752,3.81818182 202.230752,7.09090909 C202.230752,10.3636364 199.464258,13.0909091 196.144464,13.0909091 L183.418589,13.0909091 L183.418589,54.3636364 C183.418589,58 180.467662,60.9090909 176.779002,60.9090909 C173.090343,60.9090909 170.139415,58 170.139415,54.3636364 L170.139415,13.0909091 Z"></path>
                </g>
                <g transform="translate(206.564927, 0.000000)" fill="#69E781" id="Shape">
                    <path d="M0.553298912,7.09090909 C0.553298912,3.45454545 3.50422644,0.545454545 7.19288585,0.545454545 C10.8815453,0.545454545 13.8324728,3.45454545 13.8324728,7.09090909 L13.8324728,54.3636364 C13.8324728,58 10.8815453,60.9090909 7.19288585,60.9090909 C3.50422644,60.9090909 0.553298912,58 0.553298912,54.3636364 L0.553298912,7.09090909 Z"></path>
                    <path d="M21.5786576,30.9090909 L21.5786576,30.7272727 C21.5786576,13.8181818 34.4889655,0 52.9322626,0 C61.9694781,0 68.0557661,2.36363636 73.0354564,6 C74.4187036,7 75.6175179,8.90909091 75.6175179,11.1818182 C75.6175179,14.7272727 72.6665904,17.5454545 69.0701475,17.5454545 C67.2258178,17.5454545 66.0270035,16.9090909 65.1048386,16.2727273 C61.4161792,13.5454545 57.5430868,12 52.8400461,12 C42.6962327,12 35.4111304,20.2727273 35.4111304,30.4545455 L35.4111304,30.6363636 C35.4111304,40.8181818 42.5117997,49.2727273 52.8400461,49.2727273 C58.4652517,49.2727273 62.1539111,47.5454545 65.934787,44.6363636 C66.9491683,43.8181818 68.3324156,43.1818182 69.9000959,43.1818182 C73.2198893,43.1818182 76.0786004,45.9090909 76.0786004,49.1818182 C76.0786004,51.1818182 75.064219,52.8181818 73.8654047,53.8181818 C68.4246321,58.4545455 62.0616946,61.2727273 52.4711801,61.2727273 C34.765615,61.4545455 21.5786576,47.9090909 21.5786576,30.9090909 Z"></path>
                    <path d="M79.2139609,30.9090909 L79.2139609,30.7272727 C79.2139609,13.8181818 92.6775677,0 111.305298,0 C129.840811,0 143.212202,13.6363636 143.212202,30.5454545 L143.212202,30.7272727 C143.212202,47.6363636 129.748595,61.4545455 111.120865,61.4545455 C92.5853512,61.4545455 79.2139609,47.7272727 79.2139609,30.9090909 Z M129.379729,30.9090909 L129.379729,30.7272727 C129.379729,20.5454545 121.817977,12.0909091 111.120865,12.0909091 C100.423752,12.0909091 93.0464337,20.3636364 93.0464337,30.5454545 L93.0464337,30.7272727 C93.0464337,40.9090909 100.608185,49.3636364 111.305298,49.3636364 C122.00241,49.3636364 129.379729,41.0909091 129.379729,30.9090909 Z"></path>
                    <path d="M150.86617,7.27272727 C150.86617,3.63636364 153.817097,0.727272727 157.505757,0.727272727 L158.889004,0.727272727 C162.116581,0.727272727 163.960911,2.27272727 165.805241,4.54545455 L191.349207,37.6363636 L191.349207,7 C191.349207,3.45454545 194.300135,0.545454545 197.896577,0.545454545 C201.49302,0.545454545 204.443948,3.45454545 204.443948,7 L204.443948,54.1818182 C204.443948,57.8181818 201.49302,60.7272727 197.804361,60.7272727 L197.343279,60.7272727 C194.115702,60.7272727 192.271372,59.1818182 190.427042,56.9090909 L163.960911,22.6363636 L163.960911,54.4545455 C163.960911,58 161.009983,60.9090909 157.41354,60.9090909 C153.817097,60.9090909 150.86617,58 150.86617,54.4545455 L150.86617,7.27272727 Z"></path>
                </g>
            </g>
            <g id="Group">
                <path d="M47.6759229,54.9090909 L59.9407154,54.9090909 L70.8222607,37 L36.7021611,37 L25.4517499,18.6363636 L82.0726719,18.6363636 L92.9542172,0.727272727 L9.4060815,0.727272727 C6.08628803,0.727272727 3.1353605,2.45454545 1.47546376,5.27272727 C-0.0922164853,8.09090909 -0.0922164853,11.5454545 1.56768025,14.2727273 L50.9034999,94.8181818 C52.5633966,97.5454545 55.5143241,99.1818182 58.6496846,99.1818182 C61.7850451,99.1818182 64.7359727,97.5454545 66.3958694,94.8181818 L69.2545805,90.1818182 L47.6759229,54.9090909 Z" id="Shape" fill="#0E2A47"></path>
                <g transform="translate(63.629375, 0.000000)" fill="#69E781" id="Shape">
                    <path d="M28.310461,18.6363636 L49.5202526,18.6363636 L52.1945307,14.2727273 C53.8544274,11.5454545 53.9466439,8.09090909 52.2867472,5.27272727 C50.7190669,2.45454545 47.6759229,0.727272727 44.3561294,0.727272727 L39.1920062,0.727272727 L28.310461,18.6363636 Z"></path>
                    <polygon points="23.1463378 27.1818182 0.0922164853 64.9090909 10.6048958 82.1818182 44.2639129 27.1818182"></polygon>
                </g>
            </g>
        </g>
    </g>
</svg>